<svg xmlns="http://www.w3.org/2000/svg" xmlns:xlink="http://www.w3.org/1999/xlink" width="500" zoomAndPan="magnify" viewBox="0 0 375 374.999991" height="500" preserveAspectRatio="xMidYMid meet" version="1.0"><defs><clipPath id="264c21367f"><path d="M 37.160156 13 L 337.902344 13 L 337.902344 362 L 37.160156 362 Z M 37.160156 13 " clip-rule="nonzero"/></clipPath><clipPath id="d1212412bf"><path d="M 185.582031 361.089844 L 39.105469 275.976562 C 37.902344 275.277344 37.160156 273.988281 37.160156 272.597656 L 37.160156 102.34375 C 37.160156 100.953125 37.902344 99.664062 39.105469 98.964844 L 185.582031 13.851562 C 186.785156 13.152344 188.273438 13.152344 189.476562 13.851562 L 335.953125 98.964844 C 337.160156 99.664062 337.902344 100.953125 337.902344 102.34375 L 337.902344 272.597656 C 337.902344 273.988281 337.160156 275.277344 335.953125 275.976562 L 189.476562 361.089844 C 188.273438 361.789062 186.785156 361.789062 185.582031 361.089844 " clip-rule="nonzero"/></clipPath></defs><g clip-path="url(#264c21367f)"><g clip-path="url(#d1212412bf)"><path stroke-linecap="butt" transform="matrix(0.000000000000000046, 0.749874, -0.750848, 0.000000000000000046, 337.901202, 12.720619)" fill="none" stroke-linejoin="miter" d="M 464.570199 202.862744 L 351.066792 397.944145 C 350.134344 399.546499 348.415306 400.534964 346.560828 400.534964 L 119.517549 400.534964 C 117.663071 400.534964 115.944033 399.546499 115.011585 397.944145 L 1.508177 202.862744 C 0.575729 201.26039 0.575729 199.278257 1.508177 197.675903 L 115.011585 2.594501 C 115.944033 0.986945 117.663071 -0.0015202 119.517549 -0.0015202 L 346.560828 -0.0015202 C 348.415306 -0.0015202 350.134344 0.986945 351.066792 2.594501 L 464.570199 197.675903 C 465.502647 199.278257 465.502647 201.26039 464.570199 202.862744 " stroke="#64ffda" stroke-width="50" stroke-opacity="1" stroke-miterlimit="4"/></g></g></svg>